# This file uses centimeters as units for non-parametric coordinates.

g default
v -3.386718 7.311071 3.380169
v -2.728487 7.222726 4.492327
v -0.013935 7.087737 4.732380
v 2.024670 6.952748 4.086139
v 3.358847 6.864404 3.380169
v -4.065265 7.356001 1.346315
v -2.052540 7.367086 2.414483
v -0.013935 7.232097 2.414484
v 2.024670 6.952748 2.043069
v 4.063274 6.817760 2.043069
v -4.619005 7.392668 -0.000000
v -2.052540 7.222726 -0.328093
v -0.013935 7.087737 0.000000
v 2.024669 6.952748 -0.000000
v 3.609856 6.847784 -0.498730
v -4.114191 6.834447 -2.068944
v -2.052540 7.096148 -0.399772
v -0.013935 6.961160 -0.071678
v 2.024670 6.826171 -0.071678
v 3.548737 6.851830 -2.043069
v -2.616106 6.929193 -3.354295
v -2.052540 7.222726 -4.086139
v -0.013935 7.087737 -4.615154
v 1.525866 6.985777 -3.834150
v 2.844310 6.898475 -3.380169
v -2.763824 3.554353 -3.550860
v -2.146240 3.554353 -4.292480
v 0.000000 3.554353 -4.848211
v 2.146240 3.554353 -3.710795
v 3.862531 3.554353 -3.329406
v -4.219542 0.003493 -3.805116
v -3.410100 0.003493 -6.052233
v -0.383984 0.003493 -6.835793
v 3.026116 0.003493 -5.338586
v 5.957746 0.003493 -4.873365
v -6.949393 0.003493 -3.026116
v 7.003400 0.003493 -3.024865
v -7.732953 0.003493 0.000000
v 5.507899 0.003493 -0.976655
v -6.024986 0.003493 1.092717
v 6.052232 0.003493 3.026116
v -5.006577 0.003492 5.006577
v -3.702063 0.003492 6.458420
v -0.013513 0.003492 6.911679
v 3.026116 0.003492 5.121265
v 5.634835 0.003492 5.879173
v -3.550860 3.554353 3.550860
v -2.822187 3.554353 4.698668
v -0.580801 3.554353 5.006774
v 2.146240 3.554353 4.292480
v 4.058631 3.554353 3.848416
v 4.292480 3.554353 2.146240
v 4.439075 3.554353 -0.523915
v 4.604151 3.554353 -1.924785
v -4.265234 3.554353 1.414302
v -4.848211 3.554353 0.000000
v -4.292480 3.554353 -2.146240
vt 0.362998 0.366363
vt 0.401131 0.338442
vt 0.511088 0.329795
vt 0.596245 0.346876
vt 0.654063 0.366895
vt 0.356228 0.465929
vt 0.428896 0.413162
vt 0.513830 0.410712
vt 0.597762 0.428712
vt 0.674493 0.439556
vt 0.349709 0.516919
vt 0.439054 0.520456
vt 0.518173 0.505551
vt 0.597100 0.510880
vt 0.659388 0.536410
vt 0.360427 0.592106
vt 0.439550 0.526263
vt 0.518791 0.511187
vt 0.596962 0.516615
vt 0.654050 0.597651
vt 0.413512 0.644346
vt 0.441235 0.660760
vt 0.513538 0.680506
vt 0.574107 0.665662
vt 0.626308 0.652556
vt 0.376715 0.780636
vt 0.412418 0.797361
vt 0.506217 0.811184
vt 0.606432 0.796226
vt 0.676090 0.789913
vt 0.283207 0.901427
vt 0.361055 0.955774
vt 0.485047 0.973098
vt 0.633311 0.951863
vt 0.752141 0.948152
vt 0.323375 0.060137
vt 0.393859 0.043048
vt 0.531434 0.048069
vt 0.659313 0.082407
vt 0.763678 0.081478
vt 0.356395 0.209026
vt 0.408494 0.199435
vt 0.498379 0.202713
vt 0.608283 0.217900
vt 0.683757 0.228726
vt 0.957342 0.299674
vt 0.798944 0.372392
vt 0.959434 0.415045
vt 0.800121 0.441376
vt 0.941190 0.577916
vt 0.795000 0.552038
vt 0.956418 0.677508
vt 0.791494 0.610569
vt 0.920996 0.754751
vt 0.767687 0.671323
vt 0.047072 0.358841
vt 0.206568 0.393362
vt 0.053736 0.521045
vt 0.206976 0.484625
vt 0.030689 0.596835
vt 0.210177 0.550893
vt 0.077930 0.709867
vt 0.245296 0.640634
vt 0.164624 0.777198
vt 0.295873 0.711585
vn -0.008650 0.998904 0.045992
vn -0.008650 0.998904 0.045992
vn -0.008650 0.998904 0.045992
vn -0.008650 0.998904 0.045992
vn 0.052852 0.995891 0.073539
vn 0.052852 0.995891 0.073539
vn 0.052852 0.995891 0.073539
vn 0.052852 0.995891 0.073539
vn 0.109169 0.993479 0.032887
vn 0.109169 0.993479 0.032887
vn 0.109169 0.993479 0.032887
vn 0.109169 0.993479 0.032887
vn 0.066072 0.997815 0.000000
vn 0.066071 0.997815 0.000000
vn 0.066071 0.997815 0.000000
vn 0.066071 0.997815 0.000000
vn 0.039768 0.998706 -0.031690
vn 0.039768 0.998706 -0.031690
vn 0.039768 0.998706 -0.031690
vn 0.039768 0.998706 -0.031690
vn 0.070436 0.995957 -0.055759
vn 0.070436 0.995957 -0.055759
vn 0.070436 0.995957 -0.055759
vn 0.070436 0.995957 -0.055759
vn 0.098145 0.994651 -0.032212
vn 0.098145 0.994651 -0.032212
vn 0.098145 0.994651 -0.032212
vn 0.098145 0.994651 -0.032212
vn 0.066071 0.997815 0.000000
vn 0.066071 0.997815 0.000000
vn 0.066071 0.997815 0.000000
vn 0.066071 0.997815 0.000000
vn 0.065126 0.954783 -0.290082
vn 0.065126 0.954783 -0.290083
vn 0.065126 0.954783 -0.290082
vn 0.065126 0.954783 -0.290082
vn 0.170155 0.485573 -0.857477
vn 0.170155 0.485573 -0.857477
vn 0.170155 0.485573 -0.857477
vn 0.170155 0.485573 -0.857477
vn 0.032611 0.492495 -0.869704
vn 0.032611 0.492495 -0.869704
vn 0.032611 0.492495 -0.869704
vn 0.032611 0.492495 -0.869704
vn -0.033605 0.996670 -0.074299
vn -0.033605 0.996670 -0.074299
vn -0.033605 0.996670 -0.074299
vn -0.033605 0.996670 -0.074299
vn -0.201083 0.979427 -0.016990
vn -0.201083 0.979427 -0.016990
vn -0.201083 0.979427 -0.016990
vn -0.201083 0.979427 -0.016990
vn 0.067545 0.997245 0.030676
vn 0.067545 0.997245 0.030676
vn 0.067545 0.997245 0.030676
vn 0.067545 0.997245 0.030676
vn 0.059343 0.997762 0.030814
vn 0.059343 0.997762 0.030814
vn 0.059343 0.997762 0.030814
vn 0.059343 0.997762 0.030814
vn 0.038389 0.998771 0.031337
vn 0.038389 0.998771 0.031337
vn 0.038389 0.998771 0.031337
vn 0.038389 0.998771 0.031337
vn -0.784753 0.062176 -0.616683
vn -0.784753 0.062176 -0.616683
vn -0.784753 0.062176 -0.616683
vn -0.784753 0.062176 -0.616683
vn -0.248571 0.061731 -0.966645
vn -0.248571 0.061731 -0.966645
vn -0.248571 0.061731 -0.966645
vn -0.248571 0.061731 -0.966645
vn 0.462165 0.056031 -0.885022
vn 0.462165 0.056031 -0.885022
vn 0.462165 0.056031 -0.885022
vn 0.462165 0.056031 -0.885022
vn 0.266250 0.039640 -0.963089
vn 0.266250 0.039640 -0.963089
vn 0.266250 0.039640 -0.963089
vn 0.266250 0.039640 -0.963089
vn -0.817405 0.423705 -0.390285
vn -0.817405 0.423705 -0.390285
vn -0.817406 0.423705 -0.390285
vn -0.817406 0.423705 -0.390285
vn -0.217868 0.494535 -0.841409
vn -0.217868 0.494535 -0.841409
vn -0.217868 0.494535 -0.841409
vn -0.217868 0.494535 -0.841409
vn 0.384750 0.439950 -0.811426
vn 0.384750 0.439950 -0.811426
vn 0.384750 0.439950 -0.811426
vn 0.384750 0.439950 -0.811426
vn 0.159349 0.457470 -0.874831
vn 0.159349 0.457470 -0.874831
vn 0.159349 0.457470 -0.874831
vn 0.159349 0.457470 -0.874831
vn -0.693683 0.473779 0.542529
vn -0.693682 0.473779 0.542529
vn -0.693683 0.473779 0.542529
vn -0.693683 0.473779 0.542529
vn -0.113104 0.459553 0.880919
vn -0.113104 0.459553 0.880919
vn -0.113104 0.459553 0.880919
vn -0.113104 0.459553 0.880919
vn 0.365419 0.398315 0.841317
vn 0.365419 0.398315 0.841317
vn 0.365419 0.398315 0.841317
vn 0.365419 0.398315 0.841317
vn -0.064783 0.353368 0.933239
vn -0.064783 0.353368 0.933239
vn -0.064783 0.353368 0.933239
vn -0.064783 0.353368 0.933239
vn -0.849983 0.056115 0.523814
vn -0.849982 0.056115 0.523814
vn -0.849982 0.056115 0.523814
vn -0.849982 0.056115 0.523814
vn -0.107571 0.076038 0.991285
vn -0.107571 0.076038 0.991285
vn -0.107571 0.076038 0.991285
vn -0.107571 0.076038 0.991285
vn 0.275472 0.048887 0.960065
vn 0.275472 0.048887 0.960065
vn 0.275472 0.048887 0.960065
vn 0.275472 0.048887 0.960065
vn 0.334112 0.134714 0.932857
vn 0.334112 0.134714 0.932857
vn 0.334112 0.134714 0.932857
vn 0.334112 0.134714 0.932857
vn 0.877201 0.463455 0.125411
vn 0.877201 0.463455 0.125411
vn 0.877201 0.463455 0.125411
vn 0.877201 0.463455 0.125411
vn 0.944100 0.158549 0.289027
vn 0.944100 0.158549 0.289027
vn 0.944100 0.158549 0.289027
vn 0.944100 0.158549 0.289027
vn 0.928738 0.366581 -0.055357
vn 0.928738 0.366582 -0.055357
vn 0.928738 0.366582 -0.055357
vn 0.928738 0.366582 -0.055357
vn 0.985716 0.158438 -0.057115
vn 0.985716 0.158438 -0.057115
vn 0.985716 0.158438 -0.057115
vn 0.985716 0.158438 -0.057115
vn 0.851707 0.326264 0.410058
vn 0.851707 0.326264 0.410058
vn 0.851707 0.326264 0.410058
vn 0.851707 0.326264 0.410058
vn 0.960772 0.275212 0.034290
vn 0.960772 0.275212 0.034290
vn 0.960772 0.275212 0.034290
vn 0.960772 0.275212 0.034290
vn 0.706557 0.591684 -0.388185
vn 0.706557 0.591684 -0.388185
vn 0.706557 0.591684 -0.388185
vn 0.706557 0.591684 -0.388185
vn 0.856803 0.256119 -0.447540
vn 0.856803 0.256119 -0.447540
vn 0.856803 0.256119 -0.447540
vn 0.856803 0.256119 -0.447540
vn -0.866937 0.432176 0.248283
vn -0.866937 0.432176 0.248283
vn -0.866937 0.432176 0.248283
vn -0.866937 0.432176 0.248283
vn -0.946845 0.055618 0.316846
vn -0.946845 0.055618 0.316846
vn -0.946845 0.055618 0.316846
vn -0.946845 0.055618 0.316846
vn -0.672620 0.412057 0.614648
vn -0.672620 0.412057 0.614648
vn -0.672620 0.412057 0.614648
vn -0.672620 0.412057 0.614648
vn -0.923009 0.055239 0.380793
vn -0.923009 0.055239 0.380793
vn -0.923009 0.055239 0.380793
vn -0.923009 0.055239 0.380793
vn -0.760935 0.618188 -0.197031
vn -0.760935 0.618188 -0.197031
vn -0.760935 0.618188 -0.197031
vn -0.760935 0.618188 -0.197031
vn -0.966296 0.058039 -0.250807
vn -0.966296 0.058039 -0.250807
vn -0.966296 0.058039 -0.250807
vn -0.966296 0.058039 -0.250807
vn -0.422714 0.376447 -0.824379
vn -0.422714 0.376447 -0.824379
vn -0.422714 0.376447 -0.824379
vn -0.422714 0.376447 -0.824379
vn -0.664076 0.063189 -0.744990
vn -0.664077 0.063189 -0.744990
vn -0.664077 0.063189 -0.744990
vn -0.664077 0.063189 -0.744990
s off
g YEL_TreeStump
f 1/1/1 2/2/2 7/7/3 6/6/4
f 2/2/5 3/3/6 8/8/7 7/7/8
f 3/3/9 4/4/10 9/9/11 8/8/12
f 4/4/13 5/5/14 10/10/15 9/9/16
f 6/6/17 7/7/18 12/12/19 11/11/20
f 7/7/21 8/8/22 13/13/23 12/12/24
f 8/8/25 9/9/26 14/14/27 13/13/28
f 9/9/29 10/10/30 15/15/31 14/14/32
f 11/11/33 12/12/34 17/17/35 16/16/36
f 12/12/37 13/13/38 18/18/39 17/17/40
f 13/13/41 14/14/42 19/19/43 18/18/44
f 14/14/45 15/15/46 20/20/47 19/19/48
f 16/16/49 17/17/50 22/22/51 21/21/52
f 17/17/53 18/18/54 23/23/55 22/22/56
f 18/18/57 19/19/58 24/24/59 23/23/60
f 19/19/61 20/20/62 25/25/63 24/24/64
f 21/21/65 22/22/66 27/27/67 26/26/68
f 22/22/69 23/23/70 28/28/71 27/27/72
f 23/23/73 24/24/74 29/29/75 28/28/76
f 24/24/77 25/25/78 30/30/79 29/29/80
f 26/26/81 27/27/82 32/32/83 31/31/84
f 27/27/85 28/28/86 33/33/87 32/32/88
f 28/28/89 29/29/90 34/34/91 33/33/92
f 29/29/93 30/30/94 35/35/95 34/34/96
f 42/36/97 43/37/98 48/42/99 47/41/100
f 43/37/101 44/38/102 49/43/103 48/42/104
f 44/38/105 45/39/106 50/44/107 49/43/108
f 45/39/109 46/40/110 51/45/111 50/44/112
f 47/41/113 48/42/114 2/2/115 1/1/116
f 48/42/117 49/43/118 3/3/119 2/2/120
f 49/43/121 50/44/122 4/4/123 3/3/124
f 50/44/125 51/45/126 5/5/127 4/4/128
f 51/47/129 46/46/130 41/48/131 52/49/132
f 5/5/133 51/47/134 52/49/135 10/10/136
f 52/49/137 41/48/138 39/50/139 53/51/140
f 10/10/141 52/49/142 53/51/143 15/15/144
f 53/51/145 39/50/146 37/52/147 54/53/148
f 15/15/149 53/51/150 54/53/151 20/20/152
f 54/53/153 37/52/154 35/54/155 30/55/156
f 20/20/157 54/53/158 30/55/159 25/25/160
f 42/56/161 47/57/162 55/59/163 40/58/164
f 47/57/165 1/1/166 6/6/167 55/59/168
f 40/58/169 55/59/170 56/61/171 38/60/172
f 55/59/173 6/6/174 11/11/175 56/61/176
f 38/60/177 56/61/178 57/63/179 36/62/180
f 56/61/181 11/11/182 16/16/183 57/63/184
f 36/62/185 57/63/186 26/65/187 31/64/188
f 57/63/189 16/16/190 21/21/191 26/65/192
