# This file uses centimeters as units for non-parametric coordinates.

g default
v 2.252686 0.000000 -2.278534
v -0.025848 0.000000 -3.222332
v -2.304381 0.000000 -2.278534
v -3.248181 0.000000 -0.000000
v -2.304381 0.000000 2.278534
v -0.025848 0.000000 3.222332
v 2.252686 0.000000 2.278534
v 3.196485 0.000000 -0.000000
v 2.252686 1.066374 -2.278534
v -0.025848 1.066374 -3.222332
v -2.304381 1.066374 -2.278534
v -3.248181 1.066374 -0.000000
v -2.304381 1.066374 2.278534
v -0.025848 1.066374 3.222332
v 2.252686 1.066374 2.278534
v 3.196485 1.066374 -0.000000
v -0.025848 0.000000 -0.000000
v -0.025848 1.066374 -0.571545
v -0.429990 1.066374 -0.404143
v -0.597393 1.066374 -0.000000
v -0.429990 1.066374 0.404142
v -0.025848 1.066374 0.571544
v 0.378294 1.066374 0.404142
v 0.545697 1.066374 -0.000000
v 0.378294 1.066374 -0.404143
v -0.025848 37.638309 -0.571545
v -0.429995 37.638309 -0.404144
v -0.597394 37.638309 0.000000
v -0.429990 37.638309 0.404140
v -0.025848 37.638309 0.571545
v 0.378294 37.638309 0.404140
v 0.545698 37.638309 0.000000
v 0.378297 37.638309 -0.404144
v -0.025848 37.638313 -1.130333
v -0.825123 37.638313 -0.799267
v -1.156183 37.638313 0.000000
v -0.825113 37.638313 0.799263
v -0.025848 37.638313 1.130329
v 0.773414 37.638313 0.799263
v 1.104485 37.638313 0.000000
v 0.773421 37.638313 -0.799267
v -0.025852 39.848671 -1.130333
v -0.025848 39.848671 0.000000
v -0.825129 39.848671 -0.799267
v -1.156187 39.848671 0.000000
v -0.825113 39.848671 0.799263
v -0.025844 39.848671 1.130329
v 0.773423 39.848671 0.799263
v 1.104489 39.848671 0.000000
v 0.773421 39.848671 -0.799267
v -2.761600 43.996178 2.761600
v 2.761600 43.996178 2.761600
v -2.761600 43.996178 -2.761604
v 2.761600 43.996178 -2.761604
v -1.349320 38.885475 -1.349323
v 1.349323 38.885475 -1.349323
v -1.349320 38.885475 1.349319
v 1.349323 38.885475 1.349319
v -2.301333 43.632950 -2.661228
v 2.301333 43.632950 -2.661228
v 1.124439 39.374035 -1.484329
v -1.124431 39.374035 -1.484329
v -1.124431 39.374039 1.484329
v 1.124439 39.374039 1.484329
v 2.301333 43.632950 2.661228
v -2.301333 43.632950 2.661228
v 1.484325 39.374039 1.124432
v 2.661229 43.632950 2.301334
v 1.484325 39.374035 -1.124435
v 2.661229 43.632950 -2.301334
v -1.484327 39.374039 1.124432
v -2.661229 43.632950 2.301334
v -2.661229 43.632950 -2.301334
v -1.484327 39.374035 -1.124435
v -3.728162 43.996178 3.728161
v 3.728162 43.996178 3.728161
v 3.728162 43.996178 -3.728165
v -3.728162 43.996178 -3.728165
v -2.485440 44.608276 2.485439
v 2.485440 44.608276 2.485439
v 2.485440 44.608276 -2.485443
v -2.485440 44.608276 -2.485443
v -0.579934 44.608276 0.579937
v 0.579937 44.608276 0.579937
v 0.579937 44.608276 -0.579937
v -0.579934 44.608276 -0.579937
v -0.579934 45.921738 0.579937
v 0.579937 45.921738 0.579937
v 0.579937 45.921738 -0.579937
v -0.579934 45.921738 -0.579937
vt 0.574443 0.878412
vt 0.574443 0.855676
vt 0.603485 0.855676
vt 0.603485 0.878412
vt 0.574443 0.832940
vt 0.603485 0.832940
vt 0.645532 0.878412
vt 0.645532 0.855676
vt 0.674574 0.855676
vt 0.674574 0.878412
vt 0.645532 0.832940
vt 0.674574 0.832940
vt 0.919128 0.538802
vt 0.923160 0.538802
vt 0.923160 0.949487
vt 0.919128 0.949487
vt 0.927193 0.538802
vt 0.927193 0.949487
vt 0.947563 0.538802
vt 0.951596 0.538802
vt 0.951596 0.949487
vt 0.947563 0.949487
vt 0.955629 0.538802
vt 0.955629 0.949487
vt 0.709448 0.890763
vt 0.717423 0.890763
vt 0.717423 0.950961
vt 0.709448 0.950961
vt 0.725399 0.890763
vt 0.725399 0.950961
vt 0.755656 0.890763
vt 0.763631 0.890763
vt 0.763631 0.950961
vt 0.755656 0.950961
vt 0.771607 0.890763
vt 0.771607 0.950961
vt 0.553583 0.945653
vt 0.544166 0.922917
vt 0.576320 0.922917
vt 0.576320 0.955071
vt 0.553583 0.900181
vt 0.576320 0.890763
vt 0.599056 0.945653
vt 0.608474 0.922917
vt 0.599056 0.900181
vt 0.692356 0.844219
vt 0.703635 0.844219
vt 0.700331 0.852194
vt 0.692356 0.855498
vt 0.692356 0.832940
vt 0.700331 0.836243
vt 0.684380 0.852194
vt 0.681077 0.844219
vt 0.684380 0.836243
vt 0.679563 0.922917
vt 0.670145 0.945653
vt 0.651441 0.926950
vt 0.653112 0.922917
vt 0.647409 0.955071
vt 0.647409 0.928620
vt 0.670145 0.900181
vt 0.651441 0.918884
vt 0.624673 0.945653
vt 0.643376 0.926950
vt 0.647409 0.890763
vt 0.647409 0.917214
vt 0.615255 0.922917
vt 0.641706 0.922917
vt 0.624673 0.900181
vt 0.643376 0.918884
vt 0.715088 0.844219
vt 0.716759 0.848251
vt 0.712816 0.852194
vt 0.709512 0.844219
vt 0.720791 0.849922
vt 0.720791 0.855498
vt 0.716759 0.840186
vt 0.712816 0.836243
vt 0.724824 0.848251
vt 0.728767 0.852194
vt 0.720791 0.838515
vt 0.720791 0.832940
vt 0.726495 0.844219
vt 0.732070 0.844219
vt 0.724824 0.840186
vt 0.728767 0.836243
vt 0.567941 0.832940
vt 0.567941 0.855676
vt 0.538899 0.855676
vt 0.538899 0.832940
vt 0.567941 0.878412
vt 0.538899 0.878412
vt 0.609988 0.878412
vt 0.609988 0.855676
vt 0.639030 0.855676
vt 0.639030 0.878412
vt 0.609988 0.832940
vt 0.639030 0.832940
vt 0.908765 0.949487
vt 0.904732 0.949487
vt 0.904732 0.538802
vt 0.908765 0.538802
vt 0.912798 0.949487
vt 0.912798 0.538802
vt 0.933345 0.538802
vt 0.937378 0.538802
vt 0.937378 0.949487
vt 0.933345 0.949487
vt 0.941411 0.538802
vt 0.941411 0.949487
vt 0.694320 0.950961
vt 0.686344 0.950961
vt 0.686344 0.890763
vt 0.694319 0.890763
vt 0.702295 0.950961
vt 0.702295 0.890763
vt 0.732552 0.890763
vt 0.740527 0.890763
vt 0.740527 0.950961
vt 0.732552 0.950961
vt 0.748503 0.890763
vt 0.748503 0.950961
vt 0.729870 0.749099
vt 0.759467 0.749099
vt 0.759467 0.778695
vt 0.729870 0.778695
vt 0.271782 0.242894
vt 0.271782 0.043006
vt 0.456741 0.094117
vt 0.456741 0.191783
vt 0.525750 0.817961
vt 0.525750 0.749099
vt 0.594612 0.749099
vt 0.594612 0.817961
vt 0.057698 0.195264
vt 0.057698 0.097598
vt 0.242657 0.046487
vt 0.242657 0.246375
vt 0.052028 0.224016
vt 0.236987 0.275127
vt 0.236987 0.372793
vt 0.052028 0.423904
vt 0.274201 0.282981
vt 0.459160 0.231870
vt 0.459160 0.431758
vt 0.274201 0.380646
vt 0.780906 0.655053
vt 0.780906 0.547461
vt 0.787982 0.556427
vt 0.787982 0.646087
vt 0.880462 0.574972
vt 0.870945 0.579353
vt 0.880462 0.627541
vt 0.870945 0.623161
vt 0.679315 0.627542
vt 0.679315 0.574972
vt 0.688832 0.579353
vt 0.688832 0.623161
vt 0.778871 0.547461
vt 0.771795 0.556427
vt 0.778871 0.655053
vt 0.771795 0.646087
vt 0.656964 0.628843
vt 0.756520 0.656354
vt 0.747002 0.660735
vt 0.664039 0.637809
vt 0.756520 0.708923
vt 0.747002 0.704542
vt 0.656964 0.736434
vt 0.664039 0.727468
vt 0.554321 0.656754
vt 0.653877 0.629243
vt 0.646802 0.638209
vt 0.563839 0.661135
vt 0.653877 0.736834
vt 0.646802 0.727868
vt 0.554321 0.709323
vt 0.563839 0.704942
vt 0.794010 0.936754
vt 0.864464 0.936754
vt 0.876793 0.949084
vt 0.781680 0.949084
vt 0.864464 0.866300
vt 0.876793 0.853970
vt 0.794010 0.866300
vt 0.781680 0.853970
vt 0.782233 0.746889
vt 0.877346 0.746889
vt 0.861494 0.762742
vt 0.798085 0.762742
vt 0.877346 0.842003
vt 0.861494 0.826150
vt 0.782233 0.842003
vt 0.798085 0.826150
vt 0.837187 0.787048
vt 0.822392 0.787048
vt 0.837187 0.801844
vt 0.822392 0.801844
vt 0.597743 0.749099
vt 0.627340 0.749099
vt 0.627340 0.782615
vt 0.597743 0.782615
vt 0.630775 0.749099
vt 0.660371 0.749099
vt 0.660371 0.782615
vt 0.630775 0.782615
vt 0.693403 0.782615
vt 0.663806 0.782615
vt 0.663806 0.749099
vt 0.693403 0.749099
vt 0.726435 0.782614
vt 0.696838 0.782614
vt 0.696838 0.749099
vt 0.726435 0.749099
vn 0.382683 0.000000 -0.923880
vn 0.382683 0.000000 -0.923880
vn 0.382683 0.000000 -0.923880
vn 0.382683 0.000000 -0.923880
vn -0.382683 0.000000 -0.923880
vn -0.382683 0.000000 -0.923880
vn -0.382683 0.000000 -0.923880
vn -0.382683 0.000000 -0.923880
vn -0.923880 0.000000 -0.382683
vn -0.923880 0.000000 -0.382683
vn -0.923880 0.000000 -0.382683
vn -0.923880 0.000000 -0.382683
vn -0.923880 0.000000 0.382683
vn -0.923880 0.000000 0.382683
vn -0.923880 0.000000 0.382683
vn -0.923880 0.000000 0.382683
vn -0.382683 0.000000 0.923880
vn -0.382683 0.000000 0.923880
vn -0.382683 0.000000 0.923880
vn -0.382683 0.000000 0.923880
vn 0.382683 0.000000 0.923880
vn 0.382683 0.000000 0.923880
vn 0.382683 0.000000 0.923880
vn 0.382683 0.000000 0.923880
vn 0.923880 0.000000 0.382683
vn 0.923880 0.000000 0.382683
vn 0.923880 0.000000 0.382683
vn 0.923880 0.000000 0.382683
vn 0.923880 0.000000 -0.382683
vn 0.923880 0.000000 -0.382683
vn 0.923880 0.000000 -0.382683
vn 0.923880 0.000000 -0.382683
vn 0.000000 -1.000000 0.000000
vn 0.000000 -1.000000 0.000000
vn 0.000000 -1.000000 0.000000
vn 0.000000 -1.000000 0.000000
vn 0.000000 -1.000000 0.000000
vn 0.000000 -1.000000 0.000000
vn 0.000000 -1.000000 0.000000
vn 0.000000 -1.000000 0.000000
vn 0.000000 -1.000000 0.000000
vn 0.000000 1.000000 0.000001
vn 0.000000 1.000000 -0.000001
vn 0.000000 1.000000 0.000000
vn 0.000000 1.000000 0.000000
vn 0.000000 1.000000 0.000000
vn 0.000000 1.000000 0.000002
vn 0.000000 1.000000 0.000004
vn 0.000000 1.000000 0.000001
vn 0.000000 1.000000 -0.000002
vn 0.000000 1.000000 -0.000000
vn 0.000000 1.000000 -0.000000
vn 0.000000 1.000000 -0.000000
vn 0.000000 1.000000 -0.000000
vn 0.000000 1.000000 0.000000
vn 0.000000 1.000000 0.000000
vn 0.000000 1.000000 0.000000
vn 0.000000 1.000000 0.000000
vn 0.000000 1.000000 0.000000
vn 0.000000 1.000000 0.000000
vn 0.000000 1.000000 0.000000
vn 0.000000 1.000000 0.000000
vn 0.000000 1.000000 -0.000000
vn 0.000000 1.000000 -0.000000
vn 0.000000 1.000000 -0.000000
vn 0.000000 1.000000 -0.000000
vn -0.382682 -0.000000 -0.923880
vn -0.382682 -0.000000 -0.923880
vn -0.382682 -0.000000 -0.923880
vn -0.382682 -0.000000 -0.923880
vn -0.923880 -0.000000 -0.382682
vn -0.923880 -0.000000 -0.382682
vn -0.923880 -0.000000 -0.382682
vn -0.923880 -0.000000 -0.382682
vn -0.923878 -0.000000 0.382688
vn -0.923878 -0.000000 0.382688
vn -0.923878 -0.000000 0.382688
vn -0.923878 -0.000000 0.382688
vn -0.382688 0.000000 0.923878
vn -0.382688 0.000000 0.923878
vn -0.382688 0.000000 0.923878
vn -0.382688 0.000000 0.923878
vn 0.382688 0.000000 0.923878
vn 0.382688 0.000000 0.923878
vn 0.382688 0.000000 0.923878
vn 0.382688 0.000000 0.923878
vn 0.923878 -0.000000 0.382688
vn 0.923878 -0.000000 0.382688
vn 0.923878 -0.000000 0.382688
vn 0.923878 -0.000000 0.382688
vn 0.923880 -0.000000 -0.382683
vn 0.923880 -0.000000 -0.382683
vn 0.923880 -0.000000 -0.382683
vn 0.923880 -0.000000 -0.382683
vn 0.382682 -0.000000 -0.923880
vn 0.382682 -0.000000 -0.923880
vn 0.382682 -0.000000 -0.923880
vn 0.382682 -0.000000 -0.923880
vn 0.000000 -1.000000 -0.000004
vn -0.000005 -1.000000 -0.000001
vn -0.000005 -1.000000 -0.000001
vn -0.000000 -1.000000 -0.000004
vn -0.000007 -1.000000 -0.000001
vn -0.000007 -1.000000 -0.000001
vn -0.000005 -1.000000 -0.000001
vn -0.000005 -1.000000 -0.000001
vn -0.000000 -1.000000 0.000001
vn -0.000000 -1.000000 0.000001
vn 0.000005 -1.000000 -0.000001
vn 0.000005 -1.000000 -0.000001
vn 0.000007 -1.000000 0.000001
vn 0.000007 -1.000000 0.000001
vn 0.000005 -1.000000 0.000001
vn 0.000005 -1.000000 0.000001
vn -0.382678 -0.000001 -0.923882
vn -0.382678 -0.000001 -0.923882
vn -0.382678 -0.000001 -0.923882
vn -0.382678 -0.000001 -0.923882
vn -0.923883 -0.000002 -0.382675
vn -0.923883 -0.000002 -0.382675
vn -0.923883 -0.000002 -0.382675
vn -0.923883 -0.000002 -0.382675
vn -0.923877 -0.000001 0.382690
vn -0.923877 -0.000001 0.382691
vn -0.923877 -0.000001 0.382691
vn -0.923877 -0.000001 0.382691
vn -0.382682 0.000000 0.923880
vn -0.382682 0.000000 0.923880
vn -0.382682 0.000000 0.923880
vn -0.382682 0.000000 0.923880
vn 0.382683 -0.000001 0.923880
vn 0.382683 -0.000001 0.923880
vn 0.382683 -0.000001 0.923880
vn 0.382683 -0.000001 0.923880
vn 0.923879 -0.000003 0.382686
vn 0.923879 -0.000003 0.382686
vn 0.923878 -0.000003 0.382686
vn 0.923878 -0.000003 0.382686
vn 0.923880 -0.000001 -0.382683
vn 0.923880 -0.000001 -0.382683
vn 0.923880 -0.000001 -0.382683
vn 0.923880 -0.000001 -0.382683
vn 0.382681 0.000000 -0.923881
vn 0.382681 0.000000 -0.923881
vn 0.382681 0.000000 -0.923881
vn 0.382681 0.000000 -0.923881
vn 0.000000 1.000000 0.000000
vn 0.000000 1.000000 0.000000
vn 0.000000 1.000000 0.000000
vn 0.000000 1.000000 0.000000
vn 0.000001 -0.266356 -0.963875
vn -0.000001 -0.266356 -0.963875
vn -0.000001 -0.266355 -0.963875
vn 0.000001 -0.266355 -0.963875
vn 0.000000 -1.000000 0.000000
vn 0.000000 -1.000000 0.000000
vn 0.000000 -1.000000 0.000000
vn 0.000000 -1.000000 0.000000
vn -0.000000 -0.266355 0.963875
vn 0.000000 -0.266355 0.963875
vn 0.000001 -0.266355 0.963875
vn -0.000000 -0.266355 0.963875
vn 0.963875 -0.266355 -0.000001
vn 0.963875 -0.266355 -0.000001
vn 0.963875 -0.266355 0.000001
vn 0.963875 -0.266355 0.000001
vn -0.963875 -0.266355 0.000000
vn -0.963875 -0.266355 0.000000
vn -0.963875 -0.266355 -0.000000
vn -0.963875 -0.266355 -0.000000
vn 0.000003 -0.266358 -0.963874
vn -0.000002 -0.266358 -0.963874
vn -0.000002 -0.266352 -0.963876
vn 0.000003 -0.266353 -0.963876
vn -0.000001 -0.266356 0.963875
vn 0.000002 -0.266356 0.963875
vn 0.000002 -0.266355 0.963875
vn -0.000001 -0.266354 0.963875
vn 0.963876 -0.266351 -0.000003
vn 0.963877 -0.266349 -0.000003
vn 0.963877 -0.266349 0.000003
vn 0.963876 -0.266352 0.000003
vn -0.963875 -0.266354 0.000001
vn -0.963876 -0.266353 0.000000
vn -0.963876 -0.266353 -0.000001
vn -0.963875 -0.266355 -0.000000
vn 0.000000 -1.000000 0.000002
vn 0.000000 -1.000000 0.000002
vn 0.000000 -1.000000 0.000002
vn 0.000000 -1.000000 0.000002
vn 0.000000 -1.000000 -0.000002
vn 0.000000 -1.000000 -0.000002
vn 0.000000 -1.000000 -0.000002
vn 0.000000 -1.000000 -0.000002
vn 0.000000 0.897086 0.441856
vn 0.000000 0.897086 0.441856
vn 0.188657 0.963752 0.188656
vn -0.188657 0.963752 0.188656
vn 0.441857 0.897086 0.000000
vn 0.441857 0.897086 0.000000
vn 0.188657 0.963752 -0.188657
vn 0.000000 0.897086 -0.441856
vn 0.000000 0.897086 -0.441856
vn -0.188657 0.963752 -0.188657
vn -0.441857 0.897086 0.000000
vn -0.441857 0.897086 0.000000
vn 0.000000 1.000000 -0.000001
vn 0.000000 1.000000 -0.000001
vn 0.000000 1.000000 0.000001
vn 0.000000 1.000000 0.000001
vn 0.000000 0.000000 1.000000
vn 0.000000 0.000000 1.000000
vn 0.000000 0.000000 1.000000
vn 0.000000 0.000000 1.000000
vn 1.000000 0.000000 0.000000
vn 1.000000 0.000000 0.000000
vn 1.000000 0.000000 0.000000
vn 1.000000 0.000000 0.000000
vn 0.000000 0.000000 -1.000000
vn 0.000000 0.000000 -1.000000
vn 0.000000 0.000000 -1.000000
vn 0.000000 0.000000 -1.000000
vn -1.000000 0.000000 0.000000
vn -1.000000 0.000000 0.000000
vn -1.000000 0.000000 0.000000
vn -1.000000 0.000000 0.000000
s off
g YEL_StreetLamp
f 1/87/1 2/88/2 10/89/3 9/90/4
f 2/88/5 3/91/6 11/92/7 10/89/8
f 3/1/9 4/2/10 12/3/11 11/4/12
f 4/2/13 5/5/14 13/6/15 12/3/16
f 5/93/17 6/94/18 14/95/19 13/96/20
f 6/94/21 7/97/22 15/98/23 14/95/24
f 7/7/25 8/8/26 16/9/27 15/10/28
f 8/8/29 1/11/30 9/12/31 16/9/32
s 1
f 3/37/33 2/38/34 17/39/35 4/40/36
f 5/43/37 4/40/36 17/39/35 6/44/38
f 7/45/39 6/44/38 17/39/35 8/42/40
f 1/41/41 8/42/40 17/39/35 2/38/34
s 2
f 43/46/42 42/47/43 44/48/44 45/49/45
f 43/46/42 45/49/45 46/52/46 47/53/47
f 43/46/42 47/53/47 48/54/48 49/50/49
f 43/46/42 49/50/49 50/51/50 42/47/43
s 3
f 10/55/51 11/56/52 19/57/53 18/58/54
f 11/56/52 12/59/55 20/60/56 19/57/53
f 12/59/55 13/63/57 21/64/58 20/60/56
f 13/63/57 14/67/59 22/68/60 21/64/58
f 14/67/59 15/69/61 23/70/62 22/68/60
f 15/69/61 16/65/63 24/66/64 23/70/62
f 16/65/63 9/61/65 25/62/66 24/66/64
f 9/61/65 10/55/51 18/58/54 25/62/66
s off
f 18/99/67 19/100/68 27/101/69 26/102/70
f 19/13/71 20/14/72 28/15/73 27/16/74
f 20/14/75 21/17/76 29/18/77 28/15/78
f 21/105/79 22/106/80 30/107/81 29/108/82
f 22/106/83 23/109/84 31/110/85 30/107/86
f 23/19/87 24/20/88 32/21/89 31/22/90
f 24/20/91 25/23/92 33/24/93 32/21/94
f 25/103/95 18/99/96 26/102/97 33/104/98
s 4
f 26/71/99 27/72/100 35/73/101 34/74/102
f 27/72/100 28/75/103 36/76/104 35/73/101
f 28/75/103 29/79/105 37/80/106 36/76/104
f 29/79/105 30/83/107 38/84/108 37/80/106
f 30/83/107 31/85/109 39/86/110 38/84/108
f 31/85/109 32/81/111 40/82/112 39/86/110
f 32/81/111 33/77/113 41/78/114 40/82/112
f 33/77/113 26/71/99 34/74/102 41/78/114
s off
f 34/111/115 35/112/116 44/113/117 42/114/118
f 35/25/119 36/26/120 45/27/121 44/28/122
f 36/26/123 37/29/124 46/30/125 45/27/126
f 37/117/127 38/118/128 47/119/129 46/120/130
f 38/118/131 39/121/132 48/122/133 47/119/134
f 39/31/135 40/32/136 49/33/137 48/34/138
f 40/32/139 41/35/140 50/36/141 49/33/142
f 41/115/143 34/111/144 42/114/145 50/116/146
f 87/123/147 88/124/148 89/125/149 90/126/150
s 5
f 59/127/151 60/128/152 61/129/153 62/130/154
s off
f 55/131/155 56/132/156 58/133/157 57/134/158
s 6
f 63/135/159 64/136/160 65/137/161 66/138/162
s 7
f 68/139/163 67/140/164 69/141/165 70/142/166
s 8
f 71/143/167 72/144/168 73/145/169 74/146/170
s 5
f 53/147/171 54/148/172 60/149/152 59/150/151
f 54/148/172 56/151/173 61/152/153 60/149/152
f 56/151/173 55/153/174 62/154/154 61/152/153
f 55/153/174 53/147/171 59/150/151 62/154/154
s 6
f 57/155/175 58/156/176 64/157/160 63/158/159
f 58/156/176 52/159/177 65/160/161 64/157/160
f 52/159/177 51/161/178 66/162/162 65/160/161
f 51/161/178 57/155/175 63/158/159 66/162/162
s 7
f 52/163/179 58/164/180 67/165/164 68/166/163
f 58/164/180 56/167/181 69/168/165 67/165/164
f 56/167/181 54/169/182 70/170/166 69/168/165
f 54/169/182 52/163/179 68/166/163 70/170/166
s 8
f 57/171/183 51/172/184 72/173/168 71/174/167
f 51/172/184 53/175/185 73/176/169 72/173/168
f 53/175/185 55/177/186 74/178/170 73/176/169
f 55/177/186 57/171/183 71/174/167 74/178/170
s 9
f 51/179/187 52/180/188 76/181/189 75/182/190
f 52/180/188 54/183/191 77/184/192 76/181/189
f 54/183/191 53/185/193 78/186/194 77/184/192
f 53/185/193 51/179/187 75/182/190 78/186/194
s 10
f 75/187/195 76/188/196 80/189/197 79/190/198
f 76/188/199 77/191/200 81/192/201 80/189/197
f 77/191/202 78/193/203 82/194/204 81/192/201
f 78/193/205 75/187/206 79/190/198 82/194/204
f 79/190/198 80/189/197 84/195/207 83/196/208
f 80/189/197 81/192/201 85/197/209 84/195/207
f 81/192/201 82/194/204 86/198/210 85/197/209
f 82/194/204 79/190/198 83/196/208 86/198/210
s off
f 83/199/211 84/200/212 88/201/213 87/202/214
f 84/203/215 85/204/216 89/205/217 88/206/218
f 85/207/219 86/208/220 90/209/221 89/210/222
f 86/211/223 83/212/224 87/213/225 90/214/226
