# This file uses centimeters as units for non-parametric coordinates.

g default
v 0.121113 -0.602063 -0.121113
v 0.000000 -0.602063 -0.171280
v -0.121113 -0.602063 -0.121113
v -0.171280 -0.602063 0.000000
v -0.121113 -0.602063 0.121113
v 0.000000 -0.602063 0.171280
v 0.121113 -0.602063 0.121113
v 0.171280 -0.602063 0.000000
v 0.506830 -0.298285 -0.541067
v -0.000000 -0.298285 -0.768889
v -0.506830 -0.298285 -0.541067
v -0.716766 -0.298285 0.008943
v -0.506830 -0.298285 0.558953
v -0.000000 -0.298285 0.716766
v 0.506830 -0.298285 0.558953
v 0.716766 -0.298285 0.008943
v 0.631709 -0.086696 -0.571571
v 0.008151 -0.086696 -0.808324
v -0.584203 -0.086696 -0.571571
v -0.873694 -0.086696 -0.000000
v -0.615408 -0.086696 0.571571
v -0.000000 -0.086696 0.808324
v 0.584203 -0.086696 0.571571
v 0.826187 -0.086696 -0.000000
v 0.579011 0.681084 -0.592108
v -0.000000 0.678979 -0.837367
v -0.579011 0.681084 -0.592108
v -0.818846 0.686166 -0.000000
v -0.579011 0.691247 0.592108
v -0.000000 0.693352 0.837367
v 0.579011 0.691247 0.592108
v 0.818846 0.686166 -0.000000
v 0.549640 0.697577 -0.549640
v -0.000000 0.697577 -0.777307
v -0.549640 0.697577 -0.549640
v -0.777307 0.697577 -0.000000
v -0.549640 0.697577 0.549640
v -0.000000 0.697577 0.777307
v 0.549640 0.697577 0.549640
v 0.777307 0.697577 -0.000000
v 0.642238 0.985240 -0.641103
v 0.001626 0.946732 -0.906657
v -0.637040 0.930802 -0.638199
v -0.906635 0.946188 -0.000000
v -0.642238 0.984471 0.641103
v -0.001626 1.022979 0.906657
v 0.639939 1.039155 0.641104
v 0.906635 1.023523 -0.000000
v 0.000000 -0.734887 -0.000000
v -0.939135 0.747804 -0.000000
v -0.664069 0.762472 -0.663907
v -0.000000 0.768548 -0.938906
v 0.664069 0.762472 -0.663907
v 0.939135 0.747804 -0.000000
v 0.664069 0.733136 0.663907
v -0.000000 0.727060 0.938906
v -0.664069 0.733136 0.663907
v -0.000000 1.104258 -0.159015
v -0.112229 1.107697 -0.111931
v -0.159438 1.115871 -0.000000
v -0.112740 1.124083 0.112440
v -0.000000 1.127484 0.159015
v 0.112740 1.124083 0.112440
v 0.159438 1.115871 -0.000000
v 0.112740 1.107660 -0.112440
v -0.000000 1.414216 -0.111720
v -0.000000 1.454334 -0.000000
v -0.083556 1.426095 -0.078640
v -0.118704 1.454334 -0.000000
v -0.083937 1.482701 0.078998
v -0.000000 1.494451 0.111720
v 0.083937 1.482701 0.078998
v 0.118704 1.454334 -0.000000
v 0.083937 1.425966 -0.078998
vt 0.509760 0.062204
vt 0.623101 0.061121
vt 0.621675 0.104741
vt 0.503891 0.105880
vt 0.736443 0.060037
vt 0.739459 0.103585
vt 0.623198 0.264006
vt 0.501291 0.264125
vt 0.745107 0.263902
vt 0.019104 0.067165
vt 0.132395 0.063610
vt 0.135605 0.107135
vt 0.017873 0.110829
vt 0.245686 0.060055
vt 0.253332 0.103362
vt 0.140601 0.266328
vt 0.017497 0.271249
vt 0.262415 0.261496
vt 0.691527 0.381571
vt 0.785195 0.529430
vt 0.748144 0.540136
vt 0.672520 0.412539
vt 0.784495 0.708971
vt 0.737650 0.682409
vt 0.351585 0.645950
vt 0.361483 0.464783
vt 0.402519 0.489239
vt 0.401984 0.634270
vt 0.445683 0.807826
vt 0.479771 0.746273
vt 0.846329 0.973005
vt 0.811028 0.963389
vt 0.832307 0.855102
vt 0.855687 0.869117
vt 0.775580 0.953661
vt 0.808806 0.841091
vt 0.990590 0.953598
vt 0.955141 0.963326
vt 0.933766 0.855059
vt 0.957244 0.840996
vt 0.919689 0.973018
vt 0.910291 0.869159
vt 0.194187 0.802949
vt 0.170161 0.792997
vt 0.170161 0.674448
vt 0.270703 0.719641
vt 0.204139 0.826974
vt 0.170161 0.826974
vt 0.146136 0.802949
vt 0.069620 0.719641
vt 0.312348 0.828748
vt 0.194187 0.850999
vt 0.170161 0.860951
vt 0.136184 0.826974
vt 0.027975 0.828748
vt 0.270703 0.937855
vt 0.170161 0.969161
vt 0.146136 0.850999
vt 0.069620 0.937855
vt 0.381859 0.262415
vt 0.383644 0.273418
vt 0.261834 0.271558
vt 0.504449 0.272671
vt 0.141644 0.273931
vt 0.623947 0.271642
vt 0.022281 0.279628
vt 0.744451 0.273935
vt 0.864538 0.265675
vt 0.866399 0.276652
vt 0.364227 0.421893
vt 0.508966 0.344086
vt 0.516055 0.374065
vt 0.735611 0.381547
vt 0.324307 0.651640
vt 0.812214 0.521141
vt 0.403776 0.802342
vt 0.783202 0.751608
vt 0.640829 0.831745
vt 0.632932 0.807241
vt 0.881944 0.796363
vt 0.918370 0.796363
vt 0.907585 0.823608
vt 0.881944 0.835068
vt 0.881944 0.757659
vt 0.907701 0.768996
vt 0.856186 0.823732
vt 0.845517 0.796363
vt 0.856186 0.768996
vt 0.523051 0.408351
vt 0.588488 0.553342
vt 0.564135 0.550559
vt 0.603282 0.574070
vt 0.544127 0.565328
vt 0.600240 0.598250
vt 0.541425 0.590710
vt 0.614784 0.754890
vt 0.580012 0.613081
vt 0.556031 0.610241
vt 0.279516 0.059949
vt 0.383958 0.061037
vt 0.381824 0.104622
vt 0.488400 0.062125
vt 0.762303 0.060195
vt 0.866745 0.061323
vt 0.866274 0.104925
vt 0.971187 0.062451
vt 0.986660 0.106225
vt 0.985213 0.266533
vt 0.882926 0.974090
vt 0.882926 0.873026
vt 0.741678 0.939400
vt 0.784628 0.827722
vt 0.706970 0.927239
vt 0.757709 0.821474
vt 0.472783 0.842918
vt 0.818094 0.685071
vt 0.670713 0.345161
vt 0.323051 0.487169
vt 0.140163 0.273990
vt 0.984416 0.276558
vt 0.862437 0.276610
vt 0.741961 0.272482
vt 0.622462 0.271644
vt 0.501658 0.274150
vt 0.379836 0.273378
vt 0.259602 0.270218
vn 0.197555 -0.872828 -0.446254
vn 0.197555 -0.872828 -0.446254
vn 0.298107 -0.643394 -0.705108
vn 0.304604 -0.621013 -0.722190
vn -0.197555 -0.872828 -0.446254
vn -0.197555 -0.872828 -0.446254
vn -0.309269 -0.622135 -0.719237
vn -0.308731 -0.623935 -0.717907
vn -0.478265 -0.858432 -0.185358
vn -0.478265 -0.858432 -0.185358
vn -0.662390 -0.694665 -0.280500
vn -0.658593 -0.699071 -0.278488
vn -0.473818 -0.861263 0.183634
vn -0.473818 -0.861263 0.183634
vn -0.646185 -0.716809 0.261973
vn -0.656200 -0.705927 0.266587
vn -0.156936 -0.866521 0.473828
vn -0.156936 -0.866521 0.473828
vn -0.246561 -0.651766 0.717223
vn -0.257589 -0.613250 0.746708
vn 0.156935 -0.866521 0.473828
vn 0.156936 -0.866521 0.473828
vn 0.260276 -0.618777 0.741196
vn 0.251144 -0.649121 0.718031
vn 0.473818 -0.861263 0.183634
vn 0.473818 -0.861263 0.183634
vn 0.691015 -0.668737 0.274387
vn 0.684430 -0.676596 0.271613
vn 0.478265 -0.858432 -0.185358
vn 0.478265 -0.858432 -0.185358
vn 0.662011 -0.708029 -0.245839
vn 0.667353 -0.702388 -0.247569
vn 0.372858 -0.066791 -0.925481
vn 0.372779 -0.057330 -0.926147
vn -0.381372 -0.063620 -0.922230
vn -0.381439 -0.066616 -0.921990
vn -0.908170 -0.076308 -0.411588
vn -0.907222 -0.089840 -0.410947
vn -0.916575 -0.087976 0.390064
vn -0.918094 -0.064574 0.391067
vn -0.365377 -0.075257 0.927813
vn -0.366596 -0.068068 0.927887
vn 0.374582 -0.073001 0.924316
vn 0.373905 -0.076586 0.924300
vn 0.922068 -0.074087 0.379872
vn 0.921302 -0.085803 0.379264
vn 0.933877 -0.089610 -0.346184
vn 0.934374 -0.082933 -0.346507
vn 0.372008 0.034177 -0.927600
vn 0.371960 0.038771 -0.927439
vn -0.380468 0.026854 -0.924404
vn -0.380530 0.019551 -0.924562
vn -0.908263 0.067626 -0.412899
vn -0.908538 0.062689 -0.413073
vn -0.916422 0.081649 0.391796
vn -0.916085 0.086177 0.391614
vn -0.374190 0.027808 0.926935
vn -0.374143 0.033306 0.926773
vn 0.382726 0.028508 0.923422
vn 0.382779 0.021603 0.923588
vn 0.923230 0.041101 0.382043
vn 0.923415 0.035592 0.382149
vn 0.934608 0.065997 -0.349503
vn 0.934251 0.071127 -0.349451
vn 0.242394 -0.762832 -0.599443
vn 0.233441 -0.782287 -0.577522
vn -0.233441 -0.782288 -0.577522
vn -0.242394 -0.762833 -0.599442
vn -0.490867 -0.843536 -0.217937
vn -0.508031 -0.831328 -0.225384
vn -0.408684 -0.899885 0.152263
vn -0.393054 -0.907794 0.146351
vn -0.141295 -0.936257 0.321651
vn -0.134451 -0.942467 0.306071
vn 0.134450 -0.942466 0.306072
vn 0.141294 -0.936257 0.321651
vn 0.393054 -0.907794 0.146352
vn 0.408684 -0.899885 0.152264
vn 0.508031 -0.831328 -0.225385
vn 0.490867 -0.843536 -0.217937
vn 0.359489 -0.311882 -0.879487
vn 0.359695 -0.310260 -0.879976
vn -0.361245 -0.341561 -0.867662
vn -0.362796 -0.330794 -0.871180
vn -0.868121 -0.332864 -0.368195
vn -0.870274 -0.326246 -0.369034
vn -0.883556 -0.301470 0.358393
vn -0.885641 -0.294152 0.359325
vn -0.373313 -0.258100 0.891079
vn -0.373714 -0.254025 0.892081
vn 0.372288 -0.230437 0.899055
vn 0.372107 -0.232537 0.898589
vn 0.899972 -0.231248 0.369559
vn 0.898395 -0.238450 0.368821
vn 0.889441 -0.262839 -0.373912
vn 0.887782 -0.269252 -0.373291
vn -0.433322 -0.790231 -0.433322
vn 0.000000 -0.876827 -0.480806
vn -0.000000 -1.000000 -0.000000
vn -0.480806 -0.876827 0.000000
vn -0.433322 -0.790231 0.433321
vn 0.000000 -0.876827 0.480806
vn 0.433322 -0.790231 0.433321
vn 0.480806 -0.876827 -0.000000
vn 0.433322 -0.790231 -0.433321
vn -0.000000 0.941160 -0.337961
vn -0.000000 0.941160 -0.337961
vn -0.000000 0.941160 -0.337962
vn -0.000000 0.941160 -0.337961
vn -0.000000 0.941160 -0.337961
vn 0.000000 0.941160 -0.337961
vn 0.000000 0.941160 -0.337961
vn 0.000000 0.941160 -0.337961
vn -0.000000 0.941160 -0.337961
vn -0.908419 0.174109 -0.380081
vn -0.908419 0.174109 -0.380081
vn -0.381133 0.183087 -0.906210
vn -0.381133 0.183087 -0.906210
vn 0.375671 0.144619 -0.915400
vn 0.375671 0.144619 -0.915400
vn 0.917011 0.117384 -0.381197
vn 0.917011 0.117384 -0.381197
vn 0.918561 0.104363 0.381254
vn 0.918561 0.104363 0.381254
vn 0.379135 0.100354 0.919883
vn 0.379135 0.100354 0.919883
vn -0.382848 0.106449 0.917658
vn -0.382848 0.106449 0.917658
vn -0.917149 0.129906 0.376779
vn -0.917149 0.129906 0.376779
vn -0.038276 0.977453 -0.207656
vn -0.160077 0.972916 -0.166761
vn -0.160429 0.972909 -0.166467
vn -0.038217 0.977456 -0.207652
vn -0.219094 0.974668 -0.044943
vn -0.219142 0.974696 -0.044104
vn -0.169243 0.981817 0.085979
vn -0.168417 0.981887 0.086801
vn -0.038658 0.989855 0.136720
vn -0.038063 0.989883 0.136683
vn 0.083340 0.993534 0.077106
vn 0.083227 0.993533 0.077242
vn 0.124704 0.991181 -0.044833
vn 0.124749 0.991206 -0.044142
vn 0.074405 0.984731 -0.157384
vn 0.074925 0.984775 -0.156858
vn -0.366406 0.134792 -0.920640
vn -0.366406 0.134792 -0.920640
vn -0.366406 0.134792 -0.920640
vn -0.366406 0.134792 -0.920640
vn -0.903422 0.116375 -0.412658
vn -0.903422 0.116375 -0.412658
vn -0.903422 0.116375 -0.412658
vn -0.903422 0.116375 -0.412658
vn -0.921973 0.109788 0.371365
vn -0.921973 0.109788 0.371365
vn -0.921973 0.109788 0.371365
vn -0.921973 0.109788 0.371365
vn -0.379108 0.117187 0.917902
vn -0.379108 0.117187 0.917902
vn -0.379108 0.117187 0.917902
vn -0.379108 0.117187 0.917902
vn 0.379108 0.117187 0.917902
vn 0.379108 0.117187 0.917902
vn 0.379108 0.117187 0.917902
vn 0.379108 0.117187 0.917902
vn 0.921973 0.109788 0.371365
vn 0.921973 0.109788 0.371365
vn 0.921973 0.109788 0.371365
vn 0.921973 0.109788 0.371365
vn 0.905643 0.116647 -0.407682
vn 0.905643 0.116647 -0.407682
vn 0.905643 0.116647 -0.407682
vn 0.905643 0.116647 -0.407682
vn 0.361531 0.135127 -0.922516
vn 0.361531 0.135127 -0.922516
vn 0.361531 0.135127 -0.922516
vn 0.361531 0.135127 -0.922516
s 1
g YEL_pCylinder9
f 1/43/1 2/44/2 10/45/3 9/46/4
s 2
f 2/44/5 3/49/6 11/50/7 10/45/8
s 3
f 3/49/9 4/54/10 12/55/11 11/50/12
s 4
f 4/54/13 5/58/14 13/59/15 12/55/16
s 5
f 5/58/17 6/53/18 14/57/19 13/59/20
s 6
f 6/53/21 7/52/22 15/56/23 14/57/24
s 7
f 7/52/25 8/47/26 16/51/27 15/56/28
s 8
f 8/47/29 1/43/30 9/46/31 16/51/32
s 1
f 9/99/4 10/100/3 18/101/33 17/15/34
s 2
f 10/100/8 11/102/7 19/4/35 18/101/36
s 3
f 11/1/12 12/2/11 20/3/37 19/4/38
s 4
f 12/2/16 13/5/15 21/6/39 20/3/40
s 5
f 13/103/20 14/104/19 22/105/41 21/6/42
s 6
f 14/104/24 15/106/23 23/107/43 22/105/44
s 7
f 15/10/28 16/11/27 24/12/45 23/13/46
s 8
f 16/11/32 9/14/31 17/15/47 24/12/48
s 1
f 17/15/34 18/101/33 26/60/49 25/18/50
s 2
f 18/101/36 19/4/35 27/8/51 26/60/52
s 3
f 19/4/38 20/3/37 28/7/53 27/8/54
s 4
f 20/3/40 21/6/39 29/9/55 28/7/56
s 5
f 21/6/42 22/105/41 30/68/57 29/9/58
s 6
f 22/105/44 23/107/43 31/108/59 30/68/60
s 7
f 23/13/46 24/12/45 32/16/61 31/17/62
s 8
f 24/12/48 17/15/47 25/18/63 32/16/64
s 1
f 25/18/50 26/60/49 34/125/65 33/62/66
s 2
f 26/60/52 27/8/51 35/124/67 34/61/68
s 3
f 27/8/54 28/7/53 36/123/69 35/63/70
s 4
f 28/7/56 29/9/55 37/122/71 36/65/72
s 5
f 29/9/58 30/68/57 38/121/73 37/67/74
s 6
f 30/68/60 31/108/59 39/120/75 38/69/76
s 7
f 31/17/62 32/16/61 40/119/77 39/66/78
s 8
f 32/16/64 25/18/63 33/126/79 40/64/80
s 1
f 33/70/66 34/71/65 52/72/81 53/26/82
s 2
f 34/71/68 35/117/67 51/19/83 52/72/84
s 3
f 35/73/70 36/75/69 50/20/85 51/19/86
s 4
f 36/75/72 37/116/71 57/23/87 50/20/88
s 5
f 37/77/74 38/78/73 56/79/89 57/23/90
s 6
f 38/78/76 39/115/75 55/29/91 56/79/92
s 7
f 39/76/78 40/74/77 54/25/93 55/29/94
s 8
f 40/74/80 33/118/79 53/26/95 54/25/96
s 9
f 3/49/97 2/44/98 49/48/99 4/54/100
f 5/58/101 4/54/100 49/48/99 6/53/102
f 7/52/103 6/53/102 49/48/99 8/47/104
f 1/43/105 8/47/104 49/48/99 2/44/98
s 10
f 67/80/106 66/81/107 68/82/108 69/83/109
f 67/80/106 69/83/109 70/86/110 71/87/111
f 67/80/106 71/87/111 72/88/112 73/84/113
f 67/80/106 73/84/113 74/85/114 66/81/107
s 3
f 51/19/86 50/20/85 44/21/115 43/22/116
s 2
f 52/72/84 51/19/83 43/22/117 42/89/118
s 1
f 53/26/82 52/72/81 42/89/119 41/27/120
s 8
f 54/25/96 53/26/95 41/27/121 48/28/122
s 7
f 55/29/94 54/25/93 48/28/123 47/30/124
s 6
f 56/79/92 55/29/91 47/30/125 46/96/126
s 5
f 57/23/90 56/79/89 46/96/127 45/24/128
s 4
f 50/20/88 57/23/87 45/24/129 44/21/130
s 11
f 42/89/131 43/22/132 59/90/133 58/91/134
f 43/22/132 44/21/135 60/92/136 59/90/133
f 44/21/135 45/24/137 61/94/138 60/92/136
f 45/24/137 46/96/139 62/97/140 61/94/138
f 46/96/139 47/30/141 63/98/142 62/97/140
f 47/30/141 48/28/143 64/95/144 63/98/142
f 48/28/143 41/27/145 65/93/146 64/95/144
f 41/27/145 42/89/131 58/91/134 65/93/146
s off
f 58/109/147 59/31/148 68/34/149 66/110/150
f 59/31/151 60/32/152 69/33/153 68/34/154
f 60/32/155 61/35/156 70/36/157 69/33/158
f 61/35/159 62/111/160 71/112/161 70/36/162
f 62/111/163 63/113/164 72/114/165 71/112/166
f 63/37/167 64/38/168 73/39/169 72/40/170
f 64/38/171 65/41/172 74/42/173 73/39/174
f 65/41/175 58/109/176 66/110/177 74/42/178
