# This file uses centimeters as units for non-parametric coordinates.

g default
v -2.318248 5.091608 -2.114956
v 0.000000 5.769877 -3.355741
v 3.831335 5.325280 -2.475829
v -4.102786 0.000000 -3.891848
v 0.000000 0.000000 -5.370475
v 4.911426 0.000000 -4.034070
v -6.853994 0.000000 -0.000099
v 5.988763 0.000000 -0.000099
v -4.128211 0.000000 3.932047
v 0.000000 0.000000 7.611297
v 4.756897 0.000000 6.155579
v -3.048119 5.769877 3.067333
v 0.000000 6.122634 4.900940
v 3.676806 6.122634 3.745212
v 4.533967 5.325280 -0.000100
v -4.241549 5.091608 0.545623
v 1.123956 5.212725 0.262764
vt 0.412286 0.646549
vt 0.507899 0.685751
vt 0.635852 0.652717
vt 0.282106 0.918247
vt 0.476651 0.975409
vt 0.722129 0.950557
vt 0.343165 0.087180
vt 0.515773 0.045640
vt 0.702409 0.078335
vt 0.372842 0.368827
vt 0.501524 0.321001
vt 0.647726 0.374286
vt 0.939563 0.330950
vt 0.950063 0.572254
vt 0.681448 0.537141
vt 0.916783 0.730933
vt 0.052455 0.399480
vt 0.074603 0.583782
vt 0.326139 0.547043
vt 0.120295 0.800048
vt 0.515870 0.524381
vn -0.395826 0.359958 -0.844838
vn -0.027758 0.355093 -0.934419
vn -0.030677 0.355331 -0.934237
vn -0.395826 0.359958 -0.844839
vn 0.248111 0.318744 -0.914791
vn 0.248111 0.318744 -0.914791
vn -0.593347 0.280680 0.754426
vn -0.141645 0.378944 0.914515
vn -0.168110 0.375813 0.911320
vn -0.593347 0.280680 0.754426
vn 0.272169 0.391575 0.878973
vn 0.272169 0.391575 0.878973
vn 0.951554 0.248755 0.180737
vn 0.951554 0.248755 0.180737
vn 0.965877 0.258477 0.016495
vn 0.965760 0.258092 0.026368
vn 0.931673 0.259014 -0.254750
vn 0.931673 0.259014 -0.254750
vn -0.829916 0.296031 0.472869
vn -0.829916 0.296031 0.472869
vn -0.907506 0.420031 -0.002683
vn -0.898431 0.430954 -0.084262
vn -0.732764 0.435632 -0.522763
vn -0.732765 0.435632 -0.522763
vn -0.033908 0.976098 -0.214671
vn -0.030951 0.995429 -0.090346
vn -0.042272 0.993014 -0.110163
vn -0.015098 0.976191 -0.216389
vn -0.035943 0.996298 0.078088
vn -0.088071 0.993141 0.076911
vn -0.015244 0.996343 -0.084079
vn -0.058001 0.975469 -0.212357
vn 0.038908 0.996083 0.079403
s 1
g YEL_TreeStumpLowPoly
f 1/1/1 2/2/2 5/5/3 4/4/4
f 2/2/2 3/3/5 6/6/6 5/5/3
s 2
f 9/7/7 10/8/8 13/11/9 12/10/10
f 10/8/8 11/9/11 14/12/12 13/11/9
s 3
f 14/12/13 11/13/14 8/14/15 15/15/16
f 15/15/16 8/14/15 6/16/17 3/3/18
s 4
f 9/17/19 12/10/20 16/19/21 7/18/22
f 7/18/22 16/19/21 1/1/23 4/20/24
s 5
f 13/11/25 17/21/26 16/19/27 12/10/28
f 2/2/29 1/1/30 16/19/27 17/21/26
f 15/15/31 17/21/26 13/11/25 14/12/32
f 2/2/29 17/21/26 15/15/31 3/3/33
