# This file uses centimeters as units for non-parametric coordinates.

g default
v 2.708849 0.002674 0.042523
v 1.817363 0.002674 -1.285875
v 0.221196 0.002674 -1.178025
v -0.483488 0.002674 0.258222
v 0.407997 0.002674 1.586619
v 2.004164 0.002674 1.478766
v 1.921105 2.294685 -0.029349
v 1.365721 2.294685 -0.856924
v 0.371414 2.281323 -0.789792
v -0.135310 2.270070 0.003885
v 0.487875 1.984188 0.932489
v 1.482182 1.997550 0.865357
v 1.400512 5.242346 -0.100610
v 0.941748 5.424884 -0.784212
v 0.191967 5.372268 -0.734616
v -0.085799 5.318025 0.018327
v 0.281687 5.137515 0.565915
v 1.031468 5.190132 0.516319
v 1.044014 7.753292 -0.308772
v 0.684081 7.812884 -0.839901
v -0.031413 7.812917 -0.790097
v -0.379608 7.751913 -0.198189
v 0.054440 7.692905 0.443379
v 0.769935 7.692882 0.393577
v 0.870930 10.768371 -0.091489
v 0.514060 10.797446 -0.623258
v -0.170771 10.813199 -0.549299
v -0.299916 10.701952 -0.005857
v 0.024035 10.671966 0.476860
v 0.625916 10.657429 0.458570
vt 0.578125 0.708434
vt 0.421875 0.708434
vt 0.343750 0.843750
vt 0.421875 0.979066
vt 0.578125 0.979066
vt 0.656250 0.843750
vt 0.000000 0.000000
vt 1.000000 0.000000
vt 1.000000 1.000000
vt 0.000000 1.000000
vt 0.000000 0.000000
vt 1.000000 0.000000
vt 1.000000 1.000000
vt 0.000000 1.000000
vt 0.000000 0.000000
vt 1.000000 0.000000
vt 1.000000 1.000000
vt 0.000000 1.000000
vt 0.000000 0.000000
vt 1.000000 0.000000
vt 1.000000 1.000000
vt 0.000000 1.000000
vt 0.000000 0.000000
vt 1.000000 0.000000
vt 1.000000 1.000000
vt 0.000000 1.000000
vt 0.000000 0.000000
vt 1.000000 0.000000
vt 1.000000 1.000000
vt 0.000000 1.000000
vt 0.000000 0.000000
vt 1.000000 0.000000
vt 1.000000 1.000000
vt 0.000000 1.000000
vt 0.000000 0.000000
vt 1.000000 0.000000
vt 1.000000 1.000000
vt 0.000000 1.000000
vt 0.000000 0.000000
vt 1.000000 0.000000
vt 1.000000 1.000000
vt 0.000000 1.000000
vt 0.000000 0.000000
vt 1.000000 0.000000
vt 1.000000 1.000000
vt 0.000000 1.000000
vt 0.000000 0.000000
vt 1.000000 0.000000
vt 1.000000 1.000000
vt 0.000000 1.000000
vt 0.000000 0.000000
vt 1.000000 0.000000
vt 1.000000 1.000000
vt 0.000000 1.000000
vt 0.000000 0.000000
vt 1.000000 0.000000
vt 1.000000 1.000000
vt 0.000000 1.000000
vt 0.000000 0.000000
vt 1.000000 0.000000
vt 1.000000 1.000000
vt 0.000000 1.000000
vt 0.000000 0.000000
vt 1.000000 0.000000
vt 1.000000 1.000000
vt 0.000000 1.000000
vt 0.000000 0.000000
vt 1.000000 0.000000
vt 1.000000 1.000000
vt 0.000000 1.000000
vt 0.000000 0.000000
vt 1.000000 0.000000
vt 1.000000 1.000000
vt 0.000000 1.000000
vt 0.000000 0.000000
vt 1.000000 0.000000
vt 1.000000 1.000000
vt 0.000000 1.000000
vt 0.000000 0.000000
vt 1.000000 0.000000
vt 1.000000 1.000000
vt 0.000000 1.000000
vt 0.000000 0.000000
vt 1.000000 0.000000
vt 1.000000 1.000000
vt 0.000000 1.000000
vt 0.000000 0.000000
vt 1.000000 0.000000
vt 1.000000 1.000000
vt 0.000000 1.000000
vt 0.000000 0.000000
vt 1.000000 0.000000
vt 1.000000 1.000000
vt 0.000000 1.000000
vt 0.000000 0.000000
vt 1.000000 0.000000
vt 1.000000 1.000000
vt 0.000000 1.000000
vt 0.000000 0.000000
vt 1.000000 0.000000
vt 1.000000 1.000000
vt 0.000000 1.000000
vn 0.000000 1.000000 -0.000000
vn -0.000000 1.000000 0.000000
vn -0.000000 1.000000 0.000000
vn -0.000000 1.000000 0.000000
vn 0.802063 0.258783 -0.538263
vn 0.802063 0.258783 -0.538263
vn 0.817380 0.197695 -0.541116
vn 0.815872 0.204376 -0.540910
vn -0.067278 0.171298 -0.982919
vn -0.067278 0.171298 -0.982919
vn -0.067498 0.097334 -0.992960
vn -0.067493 0.104448 -0.992238
vn -0.873633 0.109741 -0.474048
vn -0.873633 0.109741 -0.474048
vn -0.883397 0.054525 -0.465443
vn -0.883592 0.053224 -0.465223
vn -0.801391 0.201175 0.563294
vn -0.801391 0.201175 0.563294
vn -0.814389 0.135117 0.564371
vn -0.820467 0.094800 0.563778
vn 0.062499 0.309417 0.948870
vn 0.062499 0.309417 0.948870
vn 0.062505 0.223123 0.972784
vn 0.062477 0.214140 0.974803
vn 0.831649 0.325951 0.449573
vn 0.831649 0.325951 0.449573
vn 0.845740 0.242281 0.475419
vn 0.841901 0.269615 0.467450
vn 0.000000 1.000000 -0.000000
vn 0.000000 1.000000 -0.000000
vn 0.832396 0.103330 -0.544463
vn 0.831724 0.113643 -0.543433
vn -0.067035 -0.003280 -0.997745
vn -0.067046 -0.002559 -0.997747
vn -0.894537 -0.053651 -0.443762
vn -0.894772 -0.057927 -0.442750
vn -0.830193 -0.006388 0.557440
vn -0.831113 -0.018929 0.555782
vn 0.063343 0.093716 0.993582
vn 0.063398 0.092796 0.993665
vn 0.866895 0.156075 0.473427
vn 0.865757 0.157106 0.475165
vn 0.831270 0.081964 -0.549793
vn 0.831651 0.080925 -0.549371
vn -0.078227 0.027493 -0.996556
vn -0.077233 0.022566 -0.996758
vn -0.911400 -0.052852 -0.408114
vn -0.912268 -0.048341 -0.406730
vn -0.831338 -0.032027 0.554844
vn -0.831097 -0.029411 0.555349
vn 0.058735 0.020614 0.998061
vn 0.058179 0.017880 0.998146
vn 0.906972 0.080409 0.413444
vn 0.905670 0.084305 0.415517
vn 0.829279 0.087346 -0.551967
vn 0.829279 0.087346 -0.551967
vn -0.087014 0.071449 -0.993641
vn -0.087014 0.071449 -0.993641
vn -0.922692 0.018778 -0.385081
vn -0.922692 0.018778 -0.385081
vn -0.829595 -0.014362 0.558180
vn -0.829595 -0.014362 0.558180
vn 0.051448 -0.015034 0.998563
vn 0.051448 -0.015034 0.998563
vn 0.921870 0.030652 0.386286
vn 0.921870 0.030652 0.386286
vn -0.018203 0.990730 0.134617
vn -0.017949 0.990762 0.134421
vn -0.020969 0.990384 0.136746
vn -0.020969 0.990384 0.136746
vn -0.015651 0.991039 0.132652
vn -0.015651 0.991039 0.132652
s 1
g palmTree_model4_bark palmTree_model4Tiny
f 6/6/1 3/3/2 4/2/3 5/1/4
s 2
f 1/7/5 2/8/6 8/9/7 7/10/8
s 3
f 2/11/9 3/12/10 9/13/11 8/14/12
s 4
f 3/15/13 4/16/14 10/17/15 9/18/16
s 5
f 4/19/17 5/20/18 11/21/19 10/22/20
s 6
f 5/23/21 6/24/22 12/25/23 11/26/24
s 7
f 6/27/25 1/28/26 7/29/27 12/30/28
s 1
f 1/5/29 2/4/30 3/3/2 6/6/1
s 2
f 7/31/8 8/32/7 14/33/31 13/34/32
s 3
f 8/35/12 9/36/11 15/37/33 14/38/34
s 4
f 9/39/16 10/40/15 16/41/35 15/42/36
s 5
f 10/43/20 11/44/19 17/45/37 16/46/38
s 6
f 11/47/24 12/48/23 18/49/39 17/50/40
s 7
f 12/51/28 7/52/27 13/53/41 18/54/42
s 2
f 13/55/32 14/56/31 20/57/43 19/58/44
s 3
f 14/59/34 15/60/33 21/61/45 20/62/46
s 4
f 15/63/36 16/64/35 22/65/47 21/66/48
s 5
f 16/67/38 17/68/37 23/69/49 22/70/50
s 6
f 17/71/40 18/72/39 24/73/51 23/74/52
s 7
f 18/75/42 13/76/41 19/77/53 24/78/54
s 2
f 19/79/44 20/80/43 26/81/55 25/82/56
s 3
f 20/83/46 21/84/45 27/85/57 26/86/58
s 4
f 21/87/48 22/88/47 28/89/59 27/90/60
s 5
f 22/91/50 23/92/49 29/93/61 28/94/62
s 6
f 23/95/52 24/96/51 30/97/63 29/98/64
s 7
f 24/99/54 19/100/53 25/101/65 30/102/66
s 8
f 25/82/67 28/94/68 29/98/69 30/102/70
f 26/86/71 27/90/72 28/94/68 25/82/67
g default
v 0.951251 13.061816 -0.811444
v 0.415914 11.099421 -1.431196
v 0.817684 8.962427 -0.208014
v 1.580456 12.499323 1.798219
v 2.213655 17.972313 -1.575463
v 0.553456 17.650883 -5.689682
v 0.159182 14.381706 0.269905
v 4.052836 18.291222 1.927484
v 4.305863 24.455788 -4.769119
v 2.065207 20.454746 -5.660990
v 1.860016 19.824078 -1.362030
v 4.012475 23.649170 -1.522083
v -1.808494 11.986818 -0.605619
v -1.311667 10.283831 0.566844
v -0.000761 8.284410 -0.146022
v -0.128269 11.519005 -2.722368
v -4.680482 16.030029 -1.907341
v -6.539347 15.878480 2.130979
v -0.954219 13.607510 -1.032670
v -3.373317 16.051569 -5.655111
v -10.315681 20.987396 -2.437723
v -8.328106 17.958462 0.511756
v -4.891018 17.899445 -2.153548
v -7.530827 20.684233 -4.290458
v 2.565604 11.592138 0.298885
v 1.920210 9.942471 -0.877439
v 0.577252 7.979144 -0.125011
v 1.012929 11.136003 2.513332
v 5.685650 15.480177 1.498395
v 7.261556 15.361807 -2.659595
v 1.810696 13.233935 0.821773
v 4.634774 15.454226 5.325917
v 11.546915 20.190609 1.762296
v 9.240619 17.324059 -1.116627
v 5.990534 17.332348 1.774357
v 8.882284 19.950478 3.792574
v 0.627500 12.327594 -1.946102
v -0.602893 10.652320 -0.855052
v 0.248364 8.119681 -0.186453
v 3.374437 11.073274 -1.724188
v 1.234025 16.932837 -5.181112
v -3.509127 17.951649 -4.420050
v 1.955851 13.806621 -1.345368
v 5.359181 15.940644 -6.276556
v -0.210038 23.203506 -10.433700
v -2.528283 20.187283 -6.951377
v 1.847832 18.919363 -5.434176
v 2.990384 21.966034 -9.028912
v -0.816924 13.345469 1.705535
v -0.243834 10.712681 2.139944
v -0.077590 8.373968 -0.040964
v -0.515933 13.364342 -1.801793
v -3.063066 19.293076 3.405500
v -2.622398 17.746693 8.883575
v 0.462791 15.296016 1.083211
v -3.961094 20.667881 -1.417065
v -7.402855 26.543148 8.081186
v -4.687455 21.274067 8.984169
v -2.701931 21.671753 3.781416
v -5.706978 26.429100 4.119765
v 1.275058 11.073226 2.394028
v 1.821334 9.641489 1.025701
v 0.415648 7.952832 0.034546
v -1.354360 10.803296 2.206800
v 2.090778 14.253695 6.103352
v 6.293089 14.039171 5.229567
v 0.549776 12.736958 2.298445
v -1.580980 14.260623 7.209728
v 5.113939 17.825026 11.666528
v 6.143023 15.549471 7.907002
v 2.119159 15.962085 6.767109
v 2.080124 17.939646 10.521222
v 2.310422 14.942314 2.151643
v 2.734701 12.502811 0.845511
v 0.791277 9.716430 0.815073
v -1.130719 14.265530 2.995077
v 4.233797 20.844007 5.121931
v 9.411956 20.555292 2.599640
v 1.114390 17.018511 1.653332
v -0.147431 21.011889 7.813034
v 9.613600 28.284840 9.382866
v 9.946129 23.716730 5.321177
v 4.273596 23.385374 5.252553
v 5.263627 27.649761 9.060152
vt 0.953700 0.444997
vt 0.986514 0.736597
vt 0.745842 0.737686
vt 0.265470 0.030713
vt 0.261476 0.279712
vt 0.018708 0.271930
vt 0.502149 0.029561
vt 0.502149 0.278624
vt 0.750498 0.516776
vt 0.503073 0.729904
vt 0.986514 0.985660
vt 0.746406 0.984551
vt 0.262499 0.496490
vt 0.053176 0.562063
vt 0.465176 0.572398
vt 0.501944 0.974488
vt 0.253563 0.788406
vt 0.028952 0.023076
vt 0.744031 0.227090
vt 0.544143 0.439319
vt 0.750498 0.516776
vt 0.953700 0.444997
vt 0.986514 0.736597
vt 0.745842 0.737686
vt 0.028952 0.023076
vt 0.265470 0.030713
vt 0.261476 0.279712
vt 0.018708 0.271930
vt 0.502149 0.029561
vt 0.502149 0.278624
vt 0.544143 0.439319
vt 0.503073 0.729904
vt 0.986514 0.985660
vt 0.746406 0.984551
vt 0.262499 0.496490
vt 0.053176 0.562063
vt 0.465176 0.572398
vt 0.501944 0.974488
vt 0.253563 0.788406
vt 0.744031 0.227090
vt 0.750498 0.516776
vt 0.953700 0.444997
vt 0.986514 0.736597
vt 0.745842 0.737686
vt 0.028952 0.023076
vt 0.265470 0.030713
vt 0.261476 0.279712
vt 0.018708 0.271930
vt 0.502149 0.029561
vt 0.502149 0.278624
vt 0.544143 0.439319
vt 0.503073 0.729904
vt 0.986514 0.985660
vt 0.746406 0.984551
vt 0.262499 0.496490
vt 0.053176 0.562063
vt 0.465176 0.572398
vt 0.501944 0.974488
vt 0.253563 0.788406
vt 0.744031 0.227090
vt 0.750498 0.516776
vt 0.953700 0.444997
vt 0.986514 0.736597
vt 0.745842 0.737686
vt 0.028952 0.023076
vt 0.265470 0.030713
vt 0.261476 0.279712
vt 0.018708 0.271930
vt 0.502149 0.029561
vt 0.502149 0.278624
vt 0.544143 0.439319
vt 0.503073 0.729904
vt 0.986514 0.985660
vt 0.746406 0.984551
vt 0.262499 0.496490
vt 0.053176 0.562063
vt 0.465176 0.572398
vt 0.501944 0.974488
vt 0.253563 0.788406
vt 0.744031 0.227090
vt 0.750498 0.516776
vt 0.953700 0.444997
vt 0.986514 0.736597
vt 0.745842 0.737686
vt 0.028952 0.023076
vt 0.265470 0.030713
vt 0.261476 0.279712
vt 0.018708 0.271930
vt 0.502149 0.029561
vt 0.502149 0.278624
vt 0.544143 0.439319
vt 0.503073 0.729904
vt 0.986514 0.985660
vt 0.746406 0.984551
vt 0.262499 0.496490
vt 0.053176 0.562063
vt 0.465176 0.572398
vt 0.501944 0.974488
vt 0.253563 0.788406
vt 0.744031 0.227090
vt 0.750498 0.516776
vt 0.953700 0.444997
vt 0.986514 0.736597
vt 0.745842 0.737686
vt 0.028952 0.023076
vt 0.265470 0.030713
vt 0.261476 0.279712
vt 0.018708 0.271930
vt 0.502149 0.029561
vt 0.502149 0.278624
vt 0.544143 0.439319
vt 0.503073 0.729904
vt 0.986514 0.985660
vt 0.746406 0.984551
vt 0.262499 0.496490
vt 0.053176 0.562063
vt 0.465176 0.572398
vt 0.501944 0.974488
vt 0.253563 0.788406
vt 0.744031 0.227090
vt 0.750498 0.516776
vt 0.953700 0.444997
vt 0.986514 0.736597
vt 0.745842 0.737686
vt 0.028952 0.023076
vt 0.265470 0.030713
vt 0.261476 0.279712
vt 0.018708 0.271930
vt 0.502149 0.029561
vt 0.502149 0.278624
vt 0.544143 0.439319
vt 0.503073 0.729904
vt 0.986514 0.985660
vt 0.746406 0.984551
vt 0.262499 0.496490
vt 0.053176 0.562063
vt 0.465176 0.572398
vt 0.501944 0.974488
vt 0.253563 0.788406
vt 0.744031 0.227090
vn 0.919083 -0.246852 -0.307166
vn 0.919083 -0.246852 -0.307166
vn 0.888072 -0.347511 -0.300938
vn 0.893120 -0.333333 -0.302036
vn -0.997539 -0.056518 -0.041498
vn -0.997539 -0.056518 -0.041498
vn -0.995520 0.094489 0.003498
vn -0.947412 0.312370 0.069539
vn -0.684933 0.071547 0.725084
vn -0.684933 0.071547 0.725084
vn -0.673147 0.358897 0.646580
vn -0.687642 0.185711 0.701897
vn 0.872025 -0.325964 -0.365130
vn 0.872025 -0.325964 -0.365130
vn 0.904568 -0.308223 -0.294543
vn 0.901921 -0.309871 -0.300862
vn 0.853486 -0.431012 -0.292901
vn 0.853486 -0.431012 -0.292901
vn -0.922072 0.376580 0.089277
vn -0.922072 0.376580 0.089277
vn -0.666307 0.398867 0.630032
vn -0.666307 0.398867 0.630032
vn 0.927566 -0.291721 -0.233497
vn 0.927566 -0.291721 -0.233497
vn -0.872867 0.486699 0.035029
vn -0.872867 0.486699 0.035029
vn -0.872867 0.486699 0.035029
vn -0.872867 0.486699 0.035029
vn 0.948064 -0.076343 -0.308783
vn 0.948064 -0.076343 -0.308783
vn 0.948064 -0.076343 -0.308783
vn 0.948064 -0.076343 -0.308783
vn -0.709015 -0.585141 -0.393582
vn -0.709015 -0.585141 -0.393582
vn -0.653824 -0.667217 -0.356841
vn -0.662175 -0.655919 -0.362347
vn 0.600089 0.293568 0.744118
vn 0.600089 0.293568 0.744118
vn 0.583956 0.438095 0.683424
vn 0.533744 0.630861 0.563144
vn 0.923002 0.384074 -0.023546
vn 0.923002 0.384074 -0.023546
vn 0.768583 0.638909 -0.032800
vn 0.871984 0.488765 -0.027451
vn -0.697227 -0.648337 -0.305831
vn -0.697227 -0.648337 -0.305831
vn -0.671671 -0.635791 -0.380301
vn -0.674103 -0.637063 -0.373811
vn -0.600521 -0.731885 -0.322055
vn -0.600521 -0.731885 -0.322055
vn 0.512294 0.683778 0.519618
vn 0.512294 0.683778 0.519618
vn 0.739835 0.671932 -0.033927
vn 0.739835 0.671932 -0.033927
vn -0.646774 -0.622053 -0.441286
vn -0.646774 -0.622053 -0.441286
vn 0.408188 0.763172 0.500951
vn 0.408188 0.763172 0.500951
vn 0.408188 0.763172 0.500951
vn 0.408188 0.763172 0.500951
vn -0.781583 -0.436887 -0.445261
vn -0.781584 -0.436887 -0.445261
vn -0.781584 -0.436887 -0.445261
vn -0.781583 -0.436887 -0.445261
vn 0.708612 -0.623528 0.330275
vn 0.708612 -0.623528 0.330275
vn 0.647683 -0.702304 0.295424
vn 0.656852 -0.691502 0.300617
vn -0.635774 0.337272 -0.694290
vn -0.635774 0.337272 -0.694290
vn -0.609553 0.479359 -0.631395
vn -0.543339 0.666665 -0.510235
vn -0.902403 0.420172 0.095525
vn -0.902403 0.420172 0.095525
vn -0.737146 0.668243 0.100338
vn -0.846886 0.522582 0.098451
vn 0.688323 -0.683832 0.242044
vn 0.688323 -0.683832 0.242044
vn 0.668367 -0.672260 0.318359
vn 0.670303 -0.673455 0.311691
vn 0.589499 -0.763820 0.262811
vn 0.589499 -0.763820 0.262811
vn -0.516816 0.717493 -0.467018
vn -0.516816 0.717493 -0.467018
vn -0.707026 0.700039 0.100294
vn -0.707026 0.700039 0.100294
vn 0.648214 -0.659165 0.381210
vn 0.648214 -0.659165 0.381210
vn -0.408450 0.792102 -0.453588
vn -0.408450 0.792102 -0.453588
vn -0.408450 0.792102 -0.453588
vn -0.408450 0.792102 -0.453588
vn 0.790643 -0.479751 0.380425
vn 0.790643 -0.479751 0.380425
vn 0.790643 -0.479751 0.380425
vn 0.790643 -0.479751 0.380425
vn -0.201745 -0.514892 -0.833178
vn -0.201745 -0.514892 -0.833178
vn -0.222910 -0.597127 -0.770552
vn -0.220031 -0.585758 -0.780047
vn -0.213119 0.316560 0.924321
vn -0.213119 0.316560 0.924321
vn -0.136262 0.447965 0.883606
vn -0.017010 0.620979 0.783643
vn 0.602951 0.206115 0.770692
vn 0.602951 0.206115 0.770692
vn 0.592582 0.477830 0.648479
vn 0.605339 0.315555 0.730746
vn -0.282509 -0.561882 -0.777482
vn -0.282509 -0.561882 -0.777482
vn -0.205450 -0.567946 -0.797012
vn -0.212319 -0.567555 -0.795489
vn -0.239133 -0.662556 -0.709814
vn -0.239133 -0.662556 -0.709814
vn 0.020199 0.667871 0.744003
vn 0.020199 0.667871 0.744003
vn 0.586562 0.514578 0.625424
vn 0.586562 0.514578 0.625424
vn -0.139381 -0.570255 -0.809557
vn -0.139381 -0.570255 -0.809557
vn 0.000180 0.759380 0.650647
vn 0.000180 0.759380 0.650647
vn 0.000180 0.759380 0.650647
vn 0.000180 0.759380 0.650647
vn -0.161094 -0.368373 -0.915614
vn -0.161094 -0.368373 -0.915614
vn -0.161094 -0.368373 -0.915614
vn -0.161094 -0.368373 -0.915614
vn -0.950995 -0.304744 -0.052347
vn -0.950995 -0.304744 -0.052347
vn -0.913122 -0.401781 -0.069145
vn -0.919170 -0.388159 -0.066787
vn 0.938810 -0.066835 0.337890
vn 0.938810 -0.066835 0.337890
vn 0.940851 0.090325 0.326559
vn 0.901196 0.317447 0.295082
vn 0.867323 0.224237 -0.444374
vn 0.867323 0.224237 -0.444374
vn 0.813599 0.487955 -0.316161
vn 0.855443 0.330716 -0.398554
vn -0.918847 -0.394614 -0.000166
vn -0.918847 -0.394614 -0.000166
vn -0.929385 -0.361993 -0.072145
vn -0.928691 -0.364971 -0.065797
vn -0.872409 -0.481682 -0.082981
vn -0.872409 -0.481682 -0.082981
vn 0.878988 0.384471 0.282069
vn 0.878988 0.384471 0.282069
vn 0.799468 0.523438 -0.294726
vn 0.799468 0.523438 -0.294726
vn -0.933683 -0.332664 -0.132553
vn -0.933683 -0.332664 -0.132553
vn 0.808569 0.480448 0.339686
vn 0.808569 0.480448 0.339686
vn 0.808569 0.480448 0.339686
vn 0.808569 0.480448 0.339686
vn -0.990050 -0.138510 -0.024834
vn -0.990050 -0.138510 -0.024834
vn -0.990050 -0.138510 -0.024834
vn -0.990050 -0.138510 -0.024834
vn 0.059379 -0.740479 0.669452
vn 0.059379 -0.740479 0.669452
vn 0.052420 -0.807170 0.587987
vn 0.053452 -0.798171 0.600056
vn 0.271791 0.459348 -0.845653
vn 0.271791 0.459348 -0.845653
vn 0.240168 0.593063 -0.768502
vn 0.182755 0.762897 -0.620152
vn -0.533820 0.555870 -0.637217
vn -0.533820 0.555870 -0.637217
vn -0.436991 0.773879 -0.458421
vn -0.501345 0.647875 -0.573508
vn 0.120133 -0.793575 0.596495
vn 0.120133 -0.793575 0.596495
vn 0.045552 -0.781667 0.622030
vn 0.052160 -0.782920 0.619931
vn 0.045967 -0.857356 0.512668
vn 0.045967 -0.857355 0.512668
vn 0.162924 0.807244 -0.567286
vn 0.162924 0.807244 -0.567286
vn -0.419305 0.800412 -0.428397
vn -0.419305 0.800412 -0.428397
vn -0.017635 -0.767747 0.640510
vn -0.017635 -0.767747 0.640510
vn 0.212837 0.862974 -0.458232
vn 0.212837 0.862974 -0.458232
vn 0.212837 0.862974 -0.458232
vn 0.212837 0.862974 -0.458232
vn 0.068098 -0.613599 0.786676
vn 0.068098 -0.613599 0.786676
vn 0.068098 -0.613599 0.786676
vn 0.068098 -0.613599 0.786676
vn 0.325552 -0.477046 0.816360
vn 0.325552 -0.477046 0.816360
vn 0.309787 -0.566083 0.763925
vn 0.312978 -0.549980 0.774317
vn -0.012159 0.171854 -0.985047
vn -0.012159 0.171854 -0.985047
vn -0.041959 0.310638 -0.949602
vn -0.088476 0.521981 -0.848356
vn -0.738145 0.309912 -0.599246
vn -0.738145 0.309912 -0.599246
vn -0.636916 0.563162 -0.526484
vn -0.705240 0.412998 -0.576255
vn 0.373978 -0.547086 0.748891
vn 0.373978 -0.547086 0.748891
vn 0.306315 -0.529655 0.790972
vn 0.315355 -0.532155 0.785724
vn 0.294276 -0.634717 0.714518
vn 0.294276 -0.634717 0.714518
vn -0.100822 0.576822 -0.810624
vn -0.100822 0.576822 -0.810624
vn -0.617233 0.597513 -0.511862
vn -0.617233 0.597513 -0.511862
vn 0.250183 -0.513005 0.821117
vn 0.250183 -0.513005 0.821118
vn -0.035161 0.666268 -0.744883
vn -0.035161 0.666268 -0.744883
vn -0.035161 0.666268 -0.744883
vn -0.035161 0.666268 -0.744883
vn 0.342119 -0.324951 0.881681
vn 0.342119 -0.324951 0.881681
vn 0.342119 -0.324951 0.881681
vn 0.342119 -0.324951 0.881681
s 1
g palmTree_model4Tiny palmTree_model4_leaves
f 31/111/73 32/103/74 36/104/75 35/105/76
s 2
f 32/120/77 33/106/78 37/107/79 36/108/80
s 3
f 33/106/81 34/109/82 38/110/83 37/107/84
s 4
f 34/122/85 31/111/86 35/105/87 38/112/88
s 1
f 35/105/76 36/104/75 40/113/89 39/114/90
s 2
f 36/108/80 37/107/79 41/115/91 40/116/92
s 3
f 37/107/84 38/110/83 42/117/93 41/115/94
s 4
f 38/112/88 35/105/87 39/114/95 42/118/96
s off
f 39/119/97 40/116/98 41/115/99 42/117/100
f 32/103/101 31/111/102 34/122/103 33/121/104
s 5
f 43/123/105 44/124/106 48/125/107 47/126/108
s 6
f 44/127/109 45/128/110 49/129/111 48/130/112
s 7
f 45/128/113 46/131/114 50/132/115 49/129/116
s 8
f 46/133/117 43/123/118 47/126/119 50/134/120
s 5
f 47/126/108 48/125/107 52/135/121 51/136/122
s 6
f 48/130/112 49/129/111 53/137/123 52/138/124
s 7
f 49/129/116 50/132/115 54/139/125 53/137/126
s 8
f 50/134/120 47/126/119 51/136/127 54/140/128
s off
f 51/141/129 52/138/130 53/137/131 54/139/132
f 44/124/133 43/123/134 46/133/135 45/142/136
s 9
f 55/143/137 56/144/138 60/145/139 59/146/140
s 10
f 56/147/141 57/148/142 61/149/143 60/150/144
s 11
f 57/148/145 58/151/146 62/152/147 61/149/148
s 12
f 58/153/149 55/143/150 59/146/151 62/154/152
s 9
f 59/146/140 60/145/139 64/155/153 63/156/154
s 10
f 60/150/144 61/149/143 65/157/155 64/158/156
s 11
f 61/149/148 62/152/147 66/159/157 65/157/158
s 12
f 62/154/152 59/146/151 63/156/159 66/160/160
s off
f 63/161/161 64/158/162 65/157/163 66/159/164
f 56/144/165 55/143/166 58/153/167 57/162/168
s 13
f 67/163/169 68/164/170 72/165/171 71/166/172
s 14
f 68/167/173 69/168/174 73/169/175 72/170/176
s 15
f 69/168/177 70/171/178 74/172/179 73/169/180
s 16
f 70/173/181 67/163/182 71/166/183 74/174/184
s 13
f 71/166/172 72/165/171 76/175/185 75/176/186
s 14
f 72/170/176 73/169/175 77/177/187 76/178/188
s 15
f 73/169/180 74/172/179 78/179/189 77/177/190
s 16
f 74/174/184 71/166/183 75/176/191 78/180/192
s off
f 75/181/193 76/178/194 77/177/195 78/179/196
f 68/164/197 67/163/198 70/173/199 69/182/200
s 17
f 79/183/201 80/184/202 84/185/203 83/186/204
s 18
f 80/187/205 81/188/206 85/189/207 84/190/208
s 19
f 81/188/209 82/191/210 86/192/211 85/189/212
s 20
f 82/193/213 79/183/214 83/186/215 86/194/216
s 17
f 83/186/204 84/185/203 88/195/217 87/196/218
s 18
f 84/190/208 85/189/207 89/197/219 88/198/220
s 19
f 85/189/212 86/192/211 90/199/221 89/197/222
s 20
f 86/194/216 83/186/215 87/196/223 90/200/224
s off
f 87/201/225 88/198/226 89/197/227 90/199/228
f 80/184/229 79/183/230 82/193/231 81/202/232
s 21
f 91/203/233 92/204/234 96/205/235 95/206/236
s 22
f 92/207/237 93/208/238 97/209/239 96/210/240
s 23
f 93/208/241 94/211/242 98/212/243 97/209/244
s 24
f 94/213/245 91/203/246 95/206/247 98/214/248
s 21
f 95/206/236 96/205/235 100/215/249 99/216/250
s 22
f 96/210/240 97/209/239 101/217/251 100/218/252
s 23
f 97/209/244 98/212/243 102/219/253 101/217/254
s 24
f 98/214/248 95/206/247 99/216/255 102/220/256
s off
f 99/221/257 100/218/258 101/217/259 102/219/260
f 92/204/261 91/203/262 94/213/263 93/222/264
s 25
f 103/223/265 104/224/266 108/225/267 107/226/268
s 26
f 104/227/269 105/228/270 109/229/271 108/230/272
s 27
f 105/228/273 106/231/274 110/232/275 109/229/276
s 28
f 106/233/277 103/223/278 107/226/279 110/234/280
s 25
f 107/226/268 108/225/267 112/235/281 111/236/282
s 26
f 108/230/272 109/229/271 113/237/283 112/238/284
s 27
f 109/229/276 110/232/275 114/239/285 113/237/286
s 28
f 110/234/280 107/226/279 111/236/287 114/240/288
s off
f 111/241/289 112/238/290 113/237/291 114/239/292
f 104/224/293 103/223/294 106/233/295 105/242/296
